<?xml version="1.0" encoding="UTF-8" standalone="no"?>
<!--Created with Inkscape(http://www.inkscape.org/)-->

<svg
width="256"
height="256"
viewBox="0 0 67.733332 67.733335"
version="1.1"
id="svg5"
inkscape:version="1.1.2(0a00cf5339,2022-02-04)"
sodipodi:docname="favicon.svg"
inkscape:export-xdpi="67.5"
inkscape:export-ydpi="67.5"
xmlns:inkscape="http://www.inkscape.org/namespaces/inkscape"
xmlns:sodipodi="http://sodipodi.sourceforge.net/DTD/sodipodi-0.dtd"
xmlns="http://www.w3.org/2000/svg"
xmlns:svg="http://www.w3.org/2000/svg">
<style
id="style26">
.outline{
stroke:#0d0d0d;
stroke-opacity:1;
stroke-linecap:butt;
stroke-linejoin:miter;
stroke-miterlimit:4;
stroke-dasharray:none;
fill:none;
}
@media(prefers-color-scheme:dark){
.outline{
stroke:#aab1b5;
}
}
#outline{
stroke-width:3.175;
}
.temp_line{
stroke-width:2.64583;
}
</style>
<sodipodi:namedview
id="namedview7"
pagecolor="#ffffff"
bordercolor="#666666"
borderopacity="1.0"
inkscape:pageshadow="2"
inkscape:pageopacity="0"
inkscape:pagecheckerboard="0"
inkscape:document-units="px"
showgrid="true"
units="px"
width="256px"
inkscape:snap-intersection-paths="true"
inkscape:object-paths="true"
inkscape:snap-grids="false"
inkscape:current-layer="temps">
<inkscape:grid
type="xygrid"
id="grid35"
originx="33.866666"
originy="33.866667"/>
</sodipodi:namedview>
<defs
id="defs2"/>
<g
inkscape:label="Ebene 1"
inkscape:groupmode="layer"
id="layer1">
<path
id="outline"
d="M 48.800265,50.106923 C 47.158363,57.032121 40.972264,61.920511 33.855772,61.916385 26.73928,61.912259 20.558852,57.0167 18.924979,50.089603 17.291106,43.162506 20.632308,36.020654 26.992107,32.838492 l-0.0046,-20.138424 c 0,-3.7992966 3.079925,-6.8792349 6.879204,-6.8792348 3.799279,-1e-7 6.879204,3.0799379 6.879204,6.8792348 l 0.0013,20.143434 c 6.362043,3.192542 9.694961,10.338237 8.053082,17.263421 z"
sodipodi:nodetypes="csscssccc"
class="outline"/>
<path
id="fluid"
style="fill:#ff0000;stroke:#ff3223;stroke-width:2.64594"
d="m 46.142691,48.560448 c-0.977516,6.017069-6.170736,10.439282-12.26605,10.444982-6.095314,0.0057-11.296793,-4.406794-12.285558,-10.422024-0.988765,-6.01523 2.526515,-11.917245 8.3049,-13.869262 l 0.002,-11.430811 h 7.937398 l 0.01044,11.427108 c 5.769283,1.937508 9.274345,7.832938 8.296829,13.850007 z"
sodipodi:nodetypes="sssccccss"/>
<g
id="temps">
<path
d="m 26.9875,31.220832 h 8.73125"
id="temp_line_1"
sodipodi:nodetypes="cc"
class="outline temp_line"/>
<path
d="m 26.9875,25.399998 h 8.73125"
id="temp_line_2"
sodipodi:nodetypes="cc"
class="outline temp_line"/>
<path
d="m 26.9875,19.579165 h 8.73125"
id="temp_line_3"
sodipodi:nodetypes="cc"
class="outline temp_line"/>
<path
d="m 26.9875,13.758332 h 8.73125"
id="temp_line_4"
sodipodi:nodetypes="cc"
class="outline temp_line"/>
</g>
</g>
</svg>
