<?xml version="1.0" encoding="UTF-8" standalone="no"?>
<!-- Created with Inkscape(http://www.inkscape.org/)-->

<svg
width="256"
height="256"
viewBox="0 0 67.733331 67.733332"
version="1.1"
id="svg5"
inkscape:version="1.1.2(0a00cf5339,2022-02-04)"
sodipodi:docname="favicon.svg"
xmlns:inkscape="http://www.inkscape.org/namespaces/inkscape"
xmlns:sodipodi="http://sodipodi.sourceforge.net/DTD/sodipodi-0.dtd"
xmlns="http://www.w3.org/2000/svg"
xmlns:svg="http://www.w3.org/2000/svg">
<style
id="style18384">
.outline{
stroke:#000000;
stroke-opacity:1;
stroke-linejoin:miter;
stroke-miterlimit:4;
stroke-dasharray:none;
stroke-linecap:butt;
fill:none;
fill-rule:evenodd;
}
@media(prefers-color-scheme:dark){
.outline{
stroke:#cacaca;
}
}
#outline{
stroke-width:4.22876;
}
.gauge_line{
stroke-width:2.11667;
}
</style>
<sodipodi:namedview
id="namedview7"
pagecolor="#ffffff"
bordercolor="#666666"
borderopacity="1.0"
inkscape:pageshadow="2"
inkscape:pageopacity="0.0"
inkscape:pagecheckerboard="0"
inkscape:document-units="px"
showgrid="true"
units="px"
width="256px"
inkscape:current-layer="g19682"
inkscape:snap-nodes="true"
inkscape:snap-grids="true"
inkscape:snap-global="true"
inkscape:snap-intersection-paths="true"
inkscape:snap-others="true"
inkscape:object-nodes="true"
inkscape:snap-to-guides="true">
<inkscape:grid
type="xygrid"
id="grid1019" />
</sodipodi:namedview>
<defs
id="defs2" />
<g
inkscape:label="Ebene 1"
inkscape:groupmode="layer"
id="layer1">
<path
id="rect14663"
style="opacity:1;fill:#ff0000;fill-opacity:1;stroke:#ff3223;stroke-width:3.1217"
d="M 47.046529,45.975642 C 46.324749,52.71869 40.632155,57.829966 33.852212,57.822578 27.072268,57.81519 21.390822,52.69152 20.683732,45.946915 19.976641,39.20231 24.471873,33.011223 31.089355,31.440762 l -0.004,-8.932576 h 5.572066 l -0.004,8.935602 c 6.633213,1.587936 11.114948,7.788805 10.393167,14.531854 z"
sodipodi:nodetypes="sssccccs" />
<path
id="outline"
d="m 40.307844,28.867678 c 7.480333,3.077249 11.74102,11.013909 10.172361,18.948718 -1.568654,7.934819 -8.522917,13.656292 -16.61152,13.655831 -8.088603,-4.59e-4 -15.04818,-5.719744 -16.61593,-13.654742 -1.567752,-7.934997 2.693859,-15.871175 10.173997,-18.947329 l -0.0036,-17.879048 c 0.0046,-3.561692 2.893643,-6.4426165 6.452617,-6.4388947 3.558975,0.00372 6.442123,2.8906831 6.442123,6.4506437 z"
sodipodi:nodetypes="csssccscc"
class="outline" />
<g
id="g19682">
<path
d="m 27.781249,28.045833 h 6.614583"
id="path18451"
class="outline gauge_line"
sodipodi:nodetypes="cc" />
<path
d="m 27.781249,24.077084 h 6.614583"
id="path18451-6"
class="outline gauge_line"
sodipodi:nodetypes="cc" />
<path
d="m 27.781249,20.108334 h 6.614583"
id="path18451-6-7"
class="outline gauge_line"
sodipodi:nodetypes="cc" />
<path
d="m 27.781249,12.170835 h 6.614583"
id="path18451-6-7-5"
class="outline gauge_line"
sodipodi:nodetypes="cc" />
<path
d="m 27.781249,16.139585 h 6.614583"
id="path18451-6-7-5-3"
class="outline gauge_line"
sodipodi:nodetypes="cc" />
</g>
</g>
</svg>
